<?xml version="1.0" encoding="UTF-8" standalone="no"?>
<!-- Created with Inkscape (http://www.inkscape.org/) -->

<svg
   width="180"
   height="180"
   viewBox="0 0 180 180"
   version="1.1"
   id="svg1"
   inkscape:version="1.3 (0e150ed6c4, 2023-07-21)"
   sodipodi:docname="sloppd-1.svg"
   xmlns:inkscape="http://www.inkscape.org/namespaces/inkscape"
   xmlns:sodipodi="http://sodipodi.sourceforge.net/DTD/sodipodi-0.dtd"
   xmlns="http://www.w3.org/2000/svg"
   xmlns:svg="http://www.w3.org/2000/svg">
  <sodipodi:namedview
     id="namedview1"
     pagecolor="#ffffff"
     bordercolor="#000000"
     borderopacity="0.25"
     inkscape:showpageshadow="2"
     inkscape:pageopacity="0.0"
     inkscape:pagecheckerboard="0"
     inkscape:deskcolor="#d1d1d1"
     inkscape:document-units="px"
     inkscape:zoom="1.7714045"
     inkscape:cx="57.016905"
     inkscape:cy="72.54131"
     inkscape:window-width="1920"
     inkscape:window-height="1017"
     inkscape:window-x="0"
     inkscape:window-y="0"
     inkscape:window-maximized="1"
     inkscape:current-layer="layer1" />
  <defs
     id="defs1" />
  <g
     inkscape:label="Layer 1"
     inkscape:groupmode="layer"
     id="layer1">
    <g
       id="g88"
       transform="matrix(2.9383552,0,0,2.9383552,-172.5351,-151.55292)">
      <path
         id="rect41"
         style="opacity:1;stroke:#000000;stroke-width:0.194087;stroke-linecap:round;stroke-linejoin:round"
         d="m 76.449219,93.082031 c 9.075521,0.02344 18.151041,0.04687 27.226561,0.07031 -0.25716,-0.242188 -0.51432,-0.484375 -0.77148,-0.726563 -8.818362,0.21875 -17.636722,0.4375 -26.455081,0.65625 z" />
      <path
         id="rect42"
         style="opacity:1;stroke:#000000;stroke-width:0.229914;stroke-linecap:round;stroke-linejoin:round"
         d="m 78.416016,94.771484 c 8.417968,-0.260416 16.835937,-0.520833 25.253904,-0.78125 -8.585285,-0.03125 -17.170571,-0.0625 -25.755858,-0.09375 0.167318,0.291667 0.334636,0.583334 0.501954,0.875 z" />
      <path
         id="rect43"
         style="opacity:1;stroke:#000000;stroke-width:0.218035;stroke-linecap:round;stroke-linejoin:round"
         d="m 77.480469,95.701172 c 8.765625,-0.101563 17.53125,-0.203125 26.296871,-0.304688 0.16146,-0.21289 0.32292,-0.425781 0.48438,-0.638672 -8.927085,0.314454 -17.854168,0.628907 -26.781251,0.94336 z" />
      <path
         d="M 105.91991,85.412381 H 74.080069 c 0.01708,0.04232 0.02917,0.08691 0.04687,0.128906 0.112436,0.266714 0.238132,0.52672 0.375,0.779297 0.136868,0.252577 0.285482,0.497406 0.445312,0.734375 0.159831,0.236969 0.330398,0.465657 0.511719,0.685547 0.181321,0.21989 0.372878,0.431471 0.574219,0.632812 0.201341,0.201341 0.412922,0.392898 0.632812,0.574219 0.219891,0.181321 0.448578,0.351889 0.685547,0.511719 0.236969,0.15983 0.481799,0.308444 0.734375,0.445312 0.252577,0.136869 0.512583,0.262564 0.779297,0.375 0.266714,0.112437 0.540932,0.212295 0.820313,0.298828 0.27938,0.08653 0.562939,0.159591 0.853515,0.21875 0.145289,0.02958 0.293595,0.05566 0.441407,0.07813 0.147811,0.02246 0.29516,0.04148 0.445312,0.05664 0.150151,0.01516 0.302772,0.02749 0.455078,0.03516 0.152306,0.0077 0.304707,0.0098 0.458985,0.0098 h 15.320312 c 0.154278,0 0.308631,-0.0021 0.460937,-0.0098 0.15231,-0.0077 0.30297,-0.02 0.45313,-0.03516 0.15015,-0.01516 0.29945,-0.03418 0.44726,-0.05664 0.14781,-0.02246 0.29417,-0.04855 0.43945,-0.07813 0.29058,-0.05916 0.576091,-0.132216 0.855471,-0.21875 0.27938,-0.08653 0.5536,-0.186391 0.82032,-0.298828 0.26671,-0.112436 0.52672,-0.238131 0.77929,-0.375 0.25258,-0.136868 0.49741,-0.285482 0.73438,-0.445312 0.23697,-0.15983 0.46565,-0.330398 0.68554,-0.511719 0.21989,-0.181321 0.42952,-0.372878 0.63086,-0.574219 0.20134,-0.201341 0.39485,-0.412922 0.57618,-0.632812 0.18132,-0.21989 0.35188,-0.448578 0.51171,-0.685547 0.15983,-0.236969 0.30845,-0.481798 0.44532,-0.734375 0.13687,-0.252577 0.26061,-0.512583 0.37304,-0.779297 0.0177,-0.04199 0.0298,-0.08658 0.0469,-0.128906 z"
         style="opacity:1;stroke-width:3;stroke-linecap:round;stroke-linejoin:round;stroke-dasharray:none"
         id="path80" />
      <path
         id="path81"
         style="opacity:1;stroke:#000000;stroke-width:0.173677;stroke-linecap:round;stroke-linejoin:round"
         d="m 79.820312,96.402344 c 7.232422,0.04362 14.464844,0.08724 21.697268,0.130859 -0.16602,-0.160807 -0.33203,-0.321614 -0.49805,-0.482422 -7.066405,0.117188 -14.132811,0.234375 -21.199218,0.351563 z" />
      <path
         id="path82"
         style="opacity:1;stroke:#000000;stroke-width:0.205737;stroke-linecap:round;stroke-linejoin:round"
         d="m 81.636719,98.15625 c 6.630859,-0.241536 13.261719,-0.483073 19.892581,-0.724609 -6.764326,-0.03711 -13.528649,-0.07422 -20.292972,-0.111329 0.133464,0.278646 0.266927,0.557292 0.400391,0.835938 z" />
      <path
         id="path83"
         style="opacity:1;stroke:#000000;stroke-width:0.195107;stroke-linecap:round;stroke-linejoin:round"
         d="m 80.757812,99.144531 c 6.955079,-0.102864 13.910157,-0.205729 20.865238,-0.308593 0.1289,-0.214844 0.25781,-0.429688 0.38672,-0.644532 -7.083989,0.317709 -14.167973,0.635417 -21.251958,0.953125 z" />
      <path
         d="m 95.639247,83.508155 a 40.259875,24.881971 33.965671 0 1 -1.60304,-2.644348 40.259875,24.881971 33.965671 0 1 -1.96612,-4.35407 40.259875,24.881971 33.965671 0 1 -1.26714,-4.280515 40.259875,24.881971 33.965671 0 1 -0.50616,-3.856608 18.566325,15.060081 33.965671 0 0 -1.53154,0.983302 18.566325,15.060081 33.965671 0 0 -2.25787,2.519688 18.566325,15.060081 33.965671 0 0 -1.48676,3.039137 18.566325,15.060081 33.965671 0 0 -0.63904,3.407982 18.566325,15.060081 33.965671 0 0 0.24055,3.603168 18.566325,15.060081 33.965671 0 0 0.31811,1.044443 40.259875,24.881971 33.965671 0 1 2.33173,-0.227891 40.259875,24.881971 33.965671 0 1 4.77212,0.188619 40.259875,24.881971 33.965671 0 1 3.59516,0.577093 z"
         style="opacity:1;fill:#000000;stroke:#000000;stroke-width:2.194;stroke-linecap:round;stroke-linejoin:round;stroke-dasharray:none"
         id="path87" />
      <ellipse
         style="opacity:1;fill:none;stroke:#000000;stroke-width:4.816;stroke-linecap:round;stroke-linejoin:round;stroke-dasharray:24.08;stroke-dashoffset:0;stroke-opacity:1"
         id="path88"
         cx="89.34758"
         cy="83.410919"
         rx="23.520149"
         ry="22.149961" />
    </g>
  </g>
</svg>
