<?xml version="1.0" encoding="UTF-8" standalone="no"?>
<!-- Created with Inkscape (http://www.inkscape.org/) -->

<svg
   width="180"
   height="180"
   viewBox="0 0 180 180"
   version="1.1"
   id="svg1"
   inkscape:version="1.3 (0e150ed6c4, 2023-07-21)"
   sodipodi:docname="sloppd-1.svg"
   inkscape:export-filename="sloppd-logo1.svg"
   inkscape:export-xdpi="96"
   inkscape:export-ydpi="96"
   xmlns:inkscape="http://www.inkscape.org/namespaces/inkscape"
   xmlns:sodipodi="http://sodipodi.sourceforge.net/DTD/sodipodi-0.dtd"
   xmlns="http://www.w3.org/2000/svg"
   xmlns:svg="http://www.w3.org/2000/svg">
  <sodipodi:namedview
     id="namedview1"
     pagecolor="#ffffff"
     bordercolor="#000000"
     borderopacity="0.25"
     inkscape:showpageshadow="2"
     inkscape:pageopacity="0.0"
     inkscape:pagecheckerboard="0"
     inkscape:deskcolor="#d1d1d1"
     inkscape:document-units="px"
     inkscape:zoom="1.7714045"
     inkscape:cx="56.734643"
     inkscape:cy="72.54131"
     inkscape:window-width="1920"
     inkscape:window-height="1017"
     inkscape:window-x="0"
     inkscape:window-y="0"
     inkscape:window-maximized="1"
     inkscape:current-layer="layer1" />
  <defs
     id="defs1" />
  <g
     inkscape:label="Layer 1"
     inkscape:groupmode="layer"
     id="layer1">
    <path
       id="rect41"
       style="stroke:#000000;stroke-width:0.898007;stroke-linecap:round;stroke-linejoin:round"
       d="m 29.219784,138.54123 c 41.990843,0.1085 83.981686,0.21686 125.972516,0.32532 -1.18983,-1.12057 -2.37967,-2.24112 -3.56949,-3.36168 -40.80102,1.01211 -81.602028,2.02424 -122.403026,3.03635 z" />
    <path
       id="rect42"
       style="stroke:#000000;stroke-width:1.06377;stroke-linecap:round;stroke-linejoin:round"
       d="m 38.319808,146.35803 c 38.948459,-1.20489 77.896922,-2.4098 116.845382,-3.6147 -39.72261,-0.14456 -79.445219,-0.28917 -119.167835,-0.43377 0.774152,1.34949 1.548303,2.69898 2.322453,4.04847 z" />
    <path
       id="rect43"
       style="stroke:#000000;stroke-width:1.00881;stroke-linecap:round;stroke-linejoin:round"
       d="m 33.991197,150.65955 c 40.557008,-0.46992 81.114013,-0.93984 121.671013,-1.40976 0.74703,-0.98499 1.49408,-1.97 2.24114,-2.95501 -41.30406,1.45493 -82.608108,2.90984 -123.912153,4.36477 z" />
    <path
       d="M 165.5755,103.05511 H 18.258143 c 0.07903,0.19581 0.134962,0.40212 0.21686,0.59643 0.520222,1.23404 1.101794,2.43704 1.735059,3.60567 0.633264,1.16863 1.320874,2.3014 2.060381,3.39782 0.739509,1.09641 1.528692,2.15452 2.367633,3.1719 0.83894,1.0174 1.725241,1.99635 2.65681,2.92792 0.93157,0.93157 1.910518,1.81786 2.927911,2.65681 1.017397,0.83893 2.075491,1.62812 3.171905,2.36763 1.096413,0.73951 2.2292,1.42712 3.397824,2.06037 1.16863,0.63327 2.371632,1.21485 3.60567,1.73507 1.23404,0.52023 2.502798,0.98226 3.795444,1.38262 1.292643,0.40037 2.604621,0.73841 3.949064,1.01213 0.672227,0.13683 1.358413,0.25751 2.042313,0.36149 0.683895,0.10392 1.365654,0.19191 2.060381,0.26206 0.694722,0.0701 1.400873,0.12723 2.105566,0.16268 0.704693,0.0356 1.409825,0.0454 2.123643,0.0454 h 70.884403 c 0.71381,0 1.42797,-0.009 2.13266,-0.0454 0.70471,-0.0356 1.4018,-0.0926 2.09656,-0.16268 0.69471,-0.0702 1.3855,-0.15814 2.06939,-0.26206 0.6839,-0.10393 1.36107,-0.22464 2.03326,-0.36149 1.34447,-0.27374 2.66547,-0.61175 3.95812,-1.01213 1.29263,-0.40035 2.5614,-0.86239 3.79547,-1.38262 1.23403,-0.52022 2.43704,-1.1018 3.60564,-1.73507 1.16864,-0.63325 2.30143,-1.32086 3.39785,-2.06037 1.09641,-0.73951 2.15447,-1.5287 3.17187,-2.36763 1.01739,-0.83895 1.98731,-1.72524 2.91888,-2.65681 0.93157,-0.93157 1.8269,-1.91052 2.66588,-2.92792 0.83893,-1.01738 1.62809,-2.07549 2.3676,-3.1719 0.73949,-1.09642 1.42713,-2.22919 2.0604,-3.39782 0.63329,-1.16863 1.20581,-2.37163 1.726,-3.60567 0.0819,-0.19428 0.13794,-0.40059 0.217,-0.59643 z"
       style="stroke-width:13.8805;stroke-linecap:round;stroke-linejoin:round;stroke-dasharray:none"
       id="path80" />
    <path
       id="path81"
       style="stroke:#000000;stroke-width:0.803573;stroke-linecap:round;stroke-linejoin:round"
       d="m 44.81724,153.90374 c 33.463146,0.20182 66.92629,0.40364 100.38945,0.60546 -0.76815,-0.74403 -1.53624,-1.48806 -2.30439,-2.23208 -32.69502,0.5422 -65.390036,1.08441 -98.08506,1.62662 z" />
    <path
       id="path82"
       style="stroke:#000000;stroke-width:0.951908;stroke-linecap:round;stroke-linejoin:round"
       d="m 53.221436,162.01876 c 30.67982,-1.11755 61.359644,-2.2351 92.039484,-3.35264 -31.29736,-0.1717 -62.594689,-0.34341 -93.892023,-0.51511 0.617514,1.28926 1.235024,2.5785 1.852539,3.86775 z" />
    <path
       id="path83"
       style="stroke:#000000;stroke-width:0.902726;stroke-linecap:round;stroke-linejoin:round"
       d="m 49.154888,166.59136 c 32.179928,-0.47593 64.359852,-0.95188 96.539792,-1.42781 0.59639,-0.99405 1.19283,-1.98808 1.78929,-2.98213 -32.77638,1.46998 -65.552728,2.93996 -98.329082,4.40994 z" />
    <path
       d="M 118.00868,94.244591 A 186.27537,115.12451 33.965671 0 1 110.59169,82.009658 186.27537,115.12451 33.965671 0 1 101.4948,61.864141 186.27537,115.12451 33.965671 0 1 95.631962,42.058949 186.27537,115.12451 33.965671 0 1 93.29005,24.215102 a 85.903126,69.680349 33.965671 0 0 -7.086167,4.549564 85.903126,69.680349 33.965671 0 0 -10.446768,11.658155 85.903126,69.680349 33.965671 0 0 -6.878978,14.061553 85.903126,69.680349 33.965671 0 0 -2.956725,15.768134 85.903126,69.680349 33.965671 0 0 1.112982,16.671226 85.903126,69.680349 33.965671 0 0 1.471839,4.832454 186.27537,115.12451 33.965671 0 1 10.788505,-1.054411 186.27537,115.12451 33.965671 0 1 22.079762,0.872706 186.27537,115.12451 33.965671 0 1 16.63418,2.670108 z"
       style="fill:#000000;stroke:#000000;stroke-width:10.1513;stroke-linecap:round;stroke-linejoin:round;stroke-dasharray:none"
       id="path87" />
  </g>
</svg>
